<?xml version="1.0" encoding="UTF-8" standalone="no"?>
<!-- Created with Inkscape (http://www.inkscape.org/) -->

<svg
   xmlns:dc="http://purl.org/dc/elements/1.1/"
   xmlns:cc="http://creativecommons.org/ns#"
   xmlns:rdf="http://www.w3.org/1999/02/22-rdf-syntax-ns#"
   xmlns:svg="http://www.w3.org/2000/svg"
   xmlns="http://www.w3.org/2000/svg"
   xmlns:sodipodi="http://sodipodi.sourceforge.net/DTD/sodipodi-0.dtd"
   xmlns:inkscape="http://www.inkscape.org/namespaces/inkscape"
   width="306.94833"
   height="305.24554"
   viewBox="0 0 306.94834 305.24553"
   id="svg2"
   version="1.1"
   inkscape:version="0.91 r13725"
   sodipodi:docname="fotka.svg">
  <defs
     id="defs4">
    <marker
       inkscape:stockid="SemiCircleOut"
       orient="auto"
       refY="0"
       refX="0"
       id="SemiCircleOut"
       style="overflow:visible"
       inkscape:isstock="true">
      <path
         id="path4329"
         d="m -2.5,-0.80913858 c 0,2.75999998 -2.24,4.99999998 -5,4.99999998 l 0,-10 c 2.76,0 5,2.24 5,5.00000002 z"
         style="fill:#000000;fill-opacity:1;fill-rule:evenodd;stroke:#000000;stroke-width:1pt;stroke-opacity:1"
         transform="matrix(0.6,0,0,0.6,4.2752958,0.4580676)"
         inkscape:connector-curvature="0" />
    </marker>
    <marker
       inkscape:stockid="Arrow2Lstart"
       orient="auto"
       refY="0"
       refX="0"
       id="Arrow2Lstart"
       style="overflow:visible"
       inkscape:isstock="true">
      <path
         id="path4166"
         style="fill:#000000;fill-opacity:1;fill-rule:evenodd;stroke:#000000;stroke-width:0.625;stroke-linejoin:round;stroke-opacity:1"
         d="M 8.7185878,4.0337352 -2.2072895,0.01601326 8.7185884,-4.0017078 c -1.7454984,2.3720609 -1.7354408,5.6174519 -6e-7,8.035443 z"
         transform="matrix(1.1,0,0,1.1,1.1,0)"
         inkscape:connector-curvature="0" />
    </marker>
    <marker
       inkscape:stockid="DotL"
       orient="auto"
       refY="0"
       refX="0"
       id="DotL"
       style="overflow:visible"
       inkscape:isstock="true">
      <path
         id="path4209"
         d="m -2.5,-1 c 0,2.76 -2.24,5 -5,5 -2.76,0 -5,-2.24 -5,-5 0,-2.76 2.24,-5 5,-5 2.76,0 5,2.24 5,5 z"
         style="fill:#000000;fill-opacity:1;fill-rule:evenodd;stroke:#000000;stroke-width:1pt;stroke-opacity:1"
         transform="matrix(0.8,0,0,0.8,5.92,0.8)"
         inkscape:connector-curvature="0" />
    </marker>
    <marker
       inkscape:stockid="Arrow2Lstart"
       orient="auto"
       refY="0"
       refX="0"
       id="Arrow2Lstart-6"
       style="overflow:visible"
       inkscape:isstock="true">
      <path
         inkscape:connector-curvature="0"
         id="path4166-6"
         style="fill:#000000;fill-opacity:1;fill-rule:evenodd;stroke:#000000;stroke-width:0.625;stroke-linejoin:round;stroke-opacity:1"
         d="M 8.7185878,4.0337352 -2.2072895,0.01601326 8.7185884,-4.0017078 c -1.7454984,2.3720609 -1.7354408,5.6174519 -6e-7,8.035443 z"
         transform="matrix(1.1,0,0,1.1,1.1,0)" />
    </marker>
    <marker
       inkscape:stockid="DotL"
       orient="auto"
       refY="0"
       refX="0"
       id="DotL-7"
       style="overflow:visible"
       inkscape:isstock="true">
      <path
         inkscape:connector-curvature="0"
         id="path4209-4"
         d="m -2.5,-1 c 0,2.76 -2.24,5 -5,5 -2.76,0 -5,-2.24 -5,-5 0,-2.76 2.24,-5 5,-5 2.76,0 5,2.24 5,5 z"
         style="fill:#000000;fill-opacity:1;fill-rule:evenodd;stroke:#000000;stroke-width:1pt;stroke-opacity:1"
         transform="matrix(0.8,0,0,0.8,5.92,0.8)" />
    </marker>
    <marker
       inkscape:stockid="Arrow2Lstart"
       orient="auto"
       refY="0"
       refX="0"
       id="Arrow2Lstart-1"
       style="overflow:visible"
       inkscape:isstock="true">
      <path
         inkscape:connector-curvature="0"
         id="path4166-2"
         style="fill:#000000;fill-opacity:1;fill-rule:evenodd;stroke:#000000;stroke-width:0.625;stroke-linejoin:round;stroke-opacity:1"
         d="M 8.7185878,4.0337352 -2.2072895,0.01601326 8.7185884,-4.0017078 c -1.7454984,2.3720609 -1.7354408,5.6174519 -6e-7,8.035443 z"
         transform="matrix(1.1,0,0,1.1,1.1,0)" />
    </marker>
    <marker
       inkscape:stockid="DotL"
       orient="auto"
       refY="0"
       refX="0"
       id="DotL-8"
       style="overflow:visible"
       inkscape:isstock="true">
      <path
         inkscape:connector-curvature="0"
         id="path4209-0"
         d="m -2.5,-1 c 0,2.76 -2.24,5 -5,5 -2.76,0 -5,-2.24 -5,-5 0,-2.76 2.24,-5 5,-5 2.76,0 5,2.24 5,5 z"
         style="fill:#000000;fill-opacity:1;fill-rule:evenodd;stroke:#000000;stroke-width:1pt;stroke-opacity:1"
         transform="matrix(0.8,0,0,0.8,5.92,0.8)" />
    </marker>
    <marker
       inkscape:stockid="Arrow2Lstart"
       orient="auto"
       refY="0"
       refX="0"
       id="Arrow2Lstart-9"
       style="overflow:visible"
       inkscape:isstock="true">
      <path
         inkscape:connector-curvature="0"
         id="path4166-9"
         style="fill:#000000;fill-opacity:1;fill-rule:evenodd;stroke:#000000;stroke-width:0.625;stroke-linejoin:round;stroke-opacity:1"
         d="M 8.7185878,4.0337352 -2.2072895,0.01601326 8.7185884,-4.0017078 c -1.7454984,2.3720609 -1.7354408,5.6174519 -6e-7,8.035443 z"
         transform="matrix(1.1,0,0,1.1,1.1,0)" />
    </marker>
    <marker
       inkscape:stockid="DotL"
       orient="auto"
       refY="0"
       refX="0"
       id="DotL-89"
       style="overflow:visible"
       inkscape:isstock="true">
      <path
         inkscape:connector-curvature="0"
         id="path4209-47"
         d="m -2.5,-1 c 0,2.76 -2.24,5 -5,5 -2.76,0 -5,-2.24 -5,-5 0,-2.76 2.24,-5 5,-5 2.76,0 5,2.24 5,5 z"
         style="fill:#000000;fill-opacity:1;fill-rule:evenodd;stroke:#000000;stroke-width:1pt;stroke-opacity:1"
         transform="matrix(0.8,0,0,0.8,5.92,0.8)" />
    </marker>
    <marker
       inkscape:stockid="Arrow2Lstart"
       orient="auto"
       refY="0"
       refX="0"
       id="Arrow2Lstart-3"
       style="overflow:visible"
       inkscape:isstock="true">
      <path
         inkscape:connector-curvature="0"
         id="path4166-4"
         style="fill:#000000;fill-opacity:1;fill-rule:evenodd;stroke:#000000;stroke-width:0.625;stroke-linejoin:round;stroke-opacity:1"
         d="M 8.7185878,4.0337352 -2.2072895,0.01601326 8.7185884,-4.0017078 c -1.7454984,2.3720609 -1.7354408,5.6174519 -6e-7,8.035443 z"
         transform="matrix(1.1,0,0,1.1,1.1,0)" />
    </marker>
    <marker
       inkscape:stockid="DotL"
       orient="auto"
       refY="0"
       refX="0"
       id="DotL-3"
       style="overflow:visible"
       inkscape:isstock="true">
      <path
         inkscape:connector-curvature="0"
         id="path4209-9"
         d="m -2.5,-1 c 0,2.76 -2.24,5 -5,5 -2.76,0 -5,-2.24 -5,-5 0,-2.76 2.24,-5 5,-5 2.76,0 5,2.24 5,5 z"
         style="fill:#000000;fill-opacity:1;fill-rule:evenodd;stroke:#000000;stroke-width:1pt;stroke-opacity:1"
         transform="matrix(0.8,0,0,0.8,5.92,0.8)" />
    </marker>
    <marker
       inkscape:stockid="Arrow2Lstart"
       orient="auto"
       refY="0"
       refX="0"
       id="Arrow2Lstart-8"
       style="overflow:visible"
       inkscape:isstock="true">
      <path
         inkscape:connector-curvature="0"
         id="path4166-3"
         style="fill:#000000;fill-opacity:1;fill-rule:evenodd;stroke:#000000;stroke-width:0.625;stroke-linejoin:round;stroke-opacity:1"
         d="M 8.7185878,4.0337352 -2.2072895,0.01601326 8.7185884,-4.0017078 c -1.7454984,2.3720609 -1.7354408,5.6174519 -6e-7,8.035443 z"
         transform="matrix(1.1,0,0,1.1,1.1,0)" />
    </marker>
    <marker
       inkscape:stockid="DotL"
       orient="auto"
       refY="0"
       refX="0"
       id="DotL-1"
       style="overflow:visible"
       inkscape:isstock="true">
      <path
         inkscape:connector-curvature="0"
         id="path4209-2"
         d="m -2.5,-1 c 0,2.76 -2.24,5 -5,5 -2.76,0 -5,-2.24 -5,-5 0,-2.76 2.24,-5 5,-5 2.76,0 5,2.24 5,5 z"
         style="fill:#000000;fill-opacity:1;fill-rule:evenodd;stroke:#000000;stroke-width:1pt;stroke-opacity:1"
         transform="matrix(0.8,0,0,0.8,5.92,0.8)" />
    </marker>
    <marker
       inkscape:stockid="Arrow2Lstart"
       orient="auto"
       refY="0"
       refX="0"
       id="Arrow2Lstart-32"
       style="overflow:visible"
       inkscape:isstock="true">
      <path
         inkscape:connector-curvature="0"
         id="path4166-49"
         style="fill:#000000;fill-opacity:1;fill-rule:evenodd;stroke:#000000;stroke-width:0.625;stroke-linejoin:round;stroke-opacity:1"
         d="M 8.7185878,4.0337352 -2.2072895,0.01601326 8.7185884,-4.0017078 c -1.7454984,2.3720609 -1.7354408,5.6174519 -6e-7,8.035443 z"
         transform="matrix(1.1,0,0,1.1,1.1,0)" />
    </marker>
    <marker
       inkscape:stockid="DotL"
       orient="auto"
       refY="0"
       refX="0"
       id="DotL-6"
       style="overflow:visible"
       inkscape:isstock="true">
      <path
         inkscape:connector-curvature="0"
         id="path4209-48"
         d="m -2.5,-1 c 0,2.76 -2.24,5 -5,5 -2.76,0 -5,-2.24 -5,-5 0,-2.76 2.24,-5 5,-5 2.76,0 5,2.24 5,5 z"
         style="fill:#000000;fill-opacity:1;fill-rule:evenodd;stroke:#000000;stroke-width:1pt;stroke-opacity:1"
         transform="matrix(0.8,0,0,0.8,5.92,0.8)" />
    </marker>
    <marker
       inkscape:stockid="Arrow2Lstart"
       orient="auto"
       refY="0"
       refX="0"
       id="Arrow2Lstart-96"
       style="overflow:visible"
       inkscape:isstock="true">
      <path
         inkscape:connector-curvature="0"
         id="path4166-7"
         style="fill:#000000;fill-opacity:1;fill-rule:evenodd;stroke:#000000;stroke-width:0.625;stroke-linejoin:round;stroke-opacity:1"
         d="M 8.7185878,4.0337352 -2.2072895,0.01601326 8.7185884,-4.0017078 c -1.7454984,2.3720609 -1.7354408,5.6174519 -6e-7,8.035443 z"
         transform="matrix(1.1,0,0,1.1,1.1,0)" />
    </marker>
    <marker
       inkscape:stockid="DotL"
       orient="auto"
       refY="0"
       refX="0"
       id="DotL-5"
       style="overflow:visible"
       inkscape:isstock="true">
      <path
         inkscape:connector-curvature="0"
         id="path4209-1"
         d="m -2.5,-1 c 0,2.76 -2.24,5 -5,5 -2.76,0 -5,-2.24 -5,-5 0,-2.76 2.24,-5 5,-5 2.76,0 5,2.24 5,5 z"
         style="fill:#000000;fill-opacity:1;fill-rule:evenodd;stroke:#000000;stroke-width:1pt;stroke-opacity:1"
         transform="matrix(0.8,0,0,0.8,5.92,0.8)" />
    </marker>
    <marker
       inkscape:stockid="Arrow2Lstart"
       orient="auto"
       refY="0"
       refX="0"
       id="Arrow2Lstart-5"
       style="overflow:visible"
       inkscape:isstock="true">
      <path
         inkscape:connector-curvature="0"
         id="path4166-41"
         style="fill:#000000;fill-opacity:1;fill-rule:evenodd;stroke:#000000;stroke-width:0.625;stroke-linejoin:round;stroke-opacity:1"
         d="M 8.7185878,4.0337352 -2.2072895,0.01601326 8.7185884,-4.0017078 c -1.7454984,2.3720609 -1.7354408,5.6174519 -6e-7,8.035443 z"
         transform="matrix(1.1,0,0,1.1,1.1,0)" />
    </marker>
    <marker
       inkscape:stockid="DotL"
       orient="auto"
       refY="0"
       refX="0"
       id="DotL-68"
       style="overflow:visible"
       inkscape:isstock="true">
      <path
         inkscape:connector-curvature="0"
         id="path4209-20"
         d="m -2.5,-1 c 0,2.76 -2.24,5 -5,5 -2.76,0 -5,-2.24 -5,-5 0,-2.76 2.24,-5 5,-5 2.76,0 5,2.24 5,5 z"
         style="fill:#000000;fill-opacity:1;fill-rule:evenodd;stroke:#000000;stroke-width:1pt;stroke-opacity:1"
         transform="matrix(0.8,0,0,0.8,5.92,0.8)" />
    </marker>
  </defs>
  <sodipodi:namedview
     id="base"
     pagecolor="#ffffff"
     bordercolor="#666666"
     borderopacity="1.0"
     inkscape:pageopacity="0.0"
     inkscape:pageshadow="2"
     inkscape:zoom="1"
     inkscape:cx="625.04649"
     inkscape:cy="123.16025"
     inkscape:document-units="px"
     inkscape:current-layer="layer1"
     showgrid="false"
     units="px"
     fit-margin-top="0"
     fit-margin-left="0"
     fit-margin-right="0"
     fit-margin-bottom="0"
     inkscape:window-width="1360"
     inkscape:window-height="708"
     inkscape:window-x="-4"
     inkscape:window-y="-4"
     inkscape:window-maximized="1" />
  <metadata
     id="metadata7">
    <rdf:RDF>
      <cc:Work
         rdf:about="">
        <dc:format>image/svg+xml</dc:format>
        <dc:type
           rdf:resource="http://purl.org/dc/dcmitype/StillImage" />
        <dc:title></dc:title>
      </cc:Work>
    </rdf:RDF>
  </metadata>
  <g
     inkscape:label="Layer 1"
     inkscape:groupmode="layer"
     id="layer1"
     transform="translate(-153.17065,-54.847337)">
    <path
       sodipodi:type="star"
       style="opacity:1;fill:none;fill-opacity:0;stroke:#000000;stroke-width:7.65600014;stroke-linecap:round;stroke-linejoin:round;stroke-miterlimit:4;stroke-dasharray:none;stroke-dashoffset:0;stroke-opacity:1"
       id="path4140"
       sodipodi:sides="9"
       sodipodi:cx="307.32501"
       sodipodi:cy="211.75151"
       sodipodi:r1="79.122093"
       sodipodi:r2="168.34488"
       sodipodi:arg1="0.76019342"
       sodipodi:arg2="1.1092593"
       inkscape:flatsided="false"
       inkscape:rounded="0.21"
       inkscape:randomized="0"
       d="m 364.66501,266.27151 c -14.15375,14.88583 36.01958,87.06356 17.62816,96.2108 -18.39143,9.14724 -45.67712,-74.41398 -66.08795,-72.10862 -20.41083,2.30536 -28.37077,89.8475 -48.33916,85.03291 -19.96838,-4.81458 12.84168,-86.3651 -4.27578,-97.71892 -17.11746,-11.35382 -79.48613,50.5908 -91.68804,34.06718 -12.20192,-16.52362 65.35171,-57.90503 59.53707,-77.60545 -5.81464,-19.70042 -93.40904,-12.33791 -92.13508,-32.83897 1.27397,-20.50106 87.28296,-2.35056 95.49187,-21.17954 8.20892,-18.82897 -63.62483,-69.49355 -49.47108,-84.37939 14.15374,-14.885835 68.37353,54.30377 86.76496,45.15653 18.39142,-9.14725 -4.06985,-94.132409 16.34098,-96.437769 20.41083,-2.305359 17.47137,85.548759 37.43976,90.363349 19.96838,4.81458 57.38946,-74.725657 74.50692,-63.371837 17.11745,11.35382 -41.60584,76.764537 -29.40392,93.288147 12.20191,16.52362 91.9956,-20.35393 97.81024,-0.65351 5.81463,19.70042 -81.21521,32.06133 -82.48918,52.56239 -1.27397,20.50107 83.55598,43.54161 75.34706,62.37059 -8.20891,18.82898 -82.82308,-27.64373 -96.97683,-12.75789 z"
       inkscape:transform-center-x="-2.9194871"
       inkscape:transform-center-y="1.60409"
       transform="matrix(0.8898381,0,0,0.88473404,32.64991,20.134152)" />
    <path
       sodipodi:type="star"
       style="opacity:1;fill:none;fill-opacity:0;stroke:#000000;stroke-width:7.65600014;stroke-linecap:round;stroke-linejoin:round;stroke-miterlimit:4;stroke-dasharray:none;stroke-dashoffset:0;stroke-opacity:1"
       id="path4140-2"
       sodipodi:sides="9"
       sodipodi:cx="307.32501"
       sodipodi:cy="211.75151"
       sodipodi:r1="168.34488"
       sodipodi:r2="168.34488"
       sodipodi:arg1="0.76019342"
       sodipodi:arg2="1.1092593"
       inkscape:flatsided="false"
       inkscape:rounded="0.21"
       inkscape:randomized="0"
       d="m 429.32501,327.75151 c -8.46014,8.89773 -36.03871,29.2632 -47.03184,34.7308 -10.99313,5.4676 -43.87391,15.17245 -56.0741,16.55044 -12.20019,1.37799 -46.41728,-0.74832 -58.35301,-3.62615 -11.93573,-2.87783 -43.36202,-16.57882 -53.59367,-23.36536 -10.23164,-6.78654 -35.07669,-30.40969 -42.37015,-40.28638 -7.29347,-9.87668 -22.56058,-40.57269 -26.03617,-52.34825 -3.47559,-11.77556 -7.32333,-45.84204 -6.56184,-58.09617 0.76149,-12.25413 8.79722,-45.58214 13.70395,-56.83681 4.90673,-11.25468 23.8567,-39.82439 32.31684,-48.72212 8.46014,-8.897731 36.0387,-29.263202 47.03183,-34.730797 10.99314,-5.467595 43.87391,-15.172456 56.07411,-16.550442 12.20019,-1.377986 46.41727,0.748316 58.353,3.626145 11.93573,2.87783 43.36203,16.578831 53.59368,23.365367 10.23164,6.786535 35.07668,30.409687 42.37015,40.286377 7.29346,9.87668 22.56057,40.5727 26.03617,52.34826 3.47559,11.77556 7.32332,45.84203 6.56183,58.09616 -0.76149,12.25413 -8.79722,45.58215 -13.70395,56.83682 -4.90672,11.25467 -23.85669,39.82438 -32.31683,48.72211 z"
       inkscape:transform-center-x="-2.9194871"
       inkscape:transform-center-y="1.60409"
       transform="matrix(0.8898381,0,0,0.88473404,33.63233,20.933708)" />
    <path
       sodipodi:type="star"
       style="opacity:1;fill:none;fill-opacity:0;stroke:#000000;stroke-width:7.65600014;stroke-linecap:round;stroke-linejoin:round;stroke-miterlimit:4;stroke-dasharray:none;stroke-dashoffset:0;stroke-opacity:1"
       id="path4140-2-6"
       sodipodi:sides="9"
       sodipodi:cx="307.32501"
       sodipodi:cy="211.75151"
       sodipodi:r1="124.57521"
       sodipodi:r2="168.34488"
       sodipodi:arg1="0.76019342"
       sodipodi:arg2="1.1092593"
       inkscape:flatsided="false"
       inkscape:rounded="0.21"
       inkscape:randomized="0"
       d="m 397.60501,297.59151 c -9.64776,10.14678 -2.77551,58.65567 -15.31184,64.8908 -12.53633,6.23513 -47.07372,-28.51411 -60.98655,-26.94268 -13.91284,1.57142 -39.82931,43.14879 -53.44056,39.86697 -13.61124,-3.28181 -17.73205,-52.10147 -29.39999,-59.84069 -11.66794,-7.73922 -58.24652,7.45211 -66.56383,-3.81105 -8.31731,-11.26315 19.90664,-51.30999 15.94315,-64.73858 -3.96348,-13.42859 -49.40954,-31.7315 -48.54116,-45.70584 0.86839,-13.97434 48.2308,-26.50998 53.82633,-39.34456 5.59552,-12.83458 -17.4533,-56.06759 -7.80554,-66.21437 9.64776,-10.146778 53.98723,10.69434 66.52355,4.45921 12.53633,-6.235125 22.66955,-54.169024 36.58239,-55.740449 13.91283,-1.571425 34.48243,42.894656 48.09367,46.17647 13.61125,3.281813 52.18506,-26.924174 63.85301,-19.184958 11.66794,7.739216 -1.15709,55.024087 7.16022,66.287247 8.31732,11.26315 57.28261,12.9188 61.2461,26.34739 3.96349,13.42859 -36.25518,41.40714 -37.12357,55.38148 -0.86839,13.97434 35.57698,46.71692 29.98145,59.5515 -5.59552,12.83458 -54.38907,8.41533 -64.03683,18.56211 z"
       inkscape:transform-center-x="-2.9194871"
       inkscape:transform-center-y="1.60409"
       transform="matrix(0.8898381,0,0,0.88473404,32.63233,18.933708)" />
  </g>
</svg>
